<?xml version="1.0" encoding="UTF-8" standalone="no"?>
<!-- Created with Inkscape (http://www.inkscape.org/) -->
<svg xmlns:inkscape="http://www.inkscape.org/namespaces/inkscape" xmlns:rdf="http://www.w3.org/1999/02/22-rdf-syntax-ns#" xmlns="http://www.w3.org/2000/svg" xmlns:xlink="http://www.w3.org/1999/xlink" xmlns:ns1="http://sozi.baierouge.fr" xmlns:cc="http://creativecommons.org/ns#" xmlns:sodipodi="http://sodipodi.sourceforge.net/DTD/sodipodi-0.dtd" xmlns:dc="http://purl.org/dc/elements/1.1/" id="svg2" xml:space="preserve" viewBox="0 0 64.75 75" version="1.1" inkscape:version="0.91 r13725">
  <g id="g10" transform="matrix(1.25,0,0,-1.25,0,75)">
    <g id="g12">
      <path id="path14" style="fill-rule:evenodd;fill:#898176" d="m45.039 38.68 1.082-0.68c-0.719 0-1.148 0.094-1.281 0.281l0.199 0.399zm3.199-0.918 1.082-0.801c-0.054-0.082-0.187-0.082-0.398 0-0.242 0.078-0.414 0.211-0.52 0.398l-0.164 0.403zm-5.718-1.321c-0.532-0.082-1.094-0.242-1.68-0.48-0.133 0.051-0.266 0.238-0.402 0.559-0.133 0.32-0.2 0.679-0.2 1.082l0.403 4.398c0.16-0.988 0.332-1.812 0.519-2.48 0.184-0.665 0.293-1.133 0.317-1.399 0.882 0.426 1.574 0.531 2.082 0.32 0-0.082 0.027-0.308 0.082-0.679 0.023-0.43-0.028-0.774-0.161-1.043l-0.96-0.278zm-8.84-9.562c-0.453 0.402-0.934 0.91-1.442 1.519l0.121-0.757c0.188-0.508 0.36-0.895 0.52-1.161l-0.281 0.161c-0.293 0.453-0.571 0.984-0.84 1.597l-0.36 0.801-0.039 0.242v0.039l-0.078 1.559c0.184 0.348 0.414 0.641 0.68 0.883 0.027-0.215 0.051-0.535 0.078-0.961 0.055-0.375 0.16-0.602 0.32-0.68 0.215-0.242 0.547-0.547 1-0.922 0.563-0.426 0.934-0.652 1.121-0.679-0.425-0.426-0.695-0.973-0.8-1.641zm4.601-5.117 1.559-0.364c-0.586-0.265-1.774-0.265-3.559 0l-0.121 0.043c-0.426 0.106-0.801 0.239-1.121 0.399l-0.078 0.48c0.48 0 1.586-0.187 3.32-0.558zm6.879 3.16c0.188 0.266 0.852 0.586 2 0.957l0.68-0.359c0-0.082 0.027-0.215 0.082-0.399 0.051-0.187 0.078-0.43 0.078-0.723 0-0.531-0.027-0.824-0.078-0.878-0.402-0.188-1.043-0.215-1.922-0.082l-0.84 1.484zm-6.762 1.719c0.883-0.879 1.75-1.215 2.602-1 0.668 0.132 1.254-0.36 1.762-1.481-0.11-0.16-0.282-0.348-0.524-0.558-0.265-0.243-0.449-0.364-0.558-0.364l-1.602 0.203c0 0.747 0.027 1.266 0.082 1.559 0.028 0.055 0.039 0.121 0.039 0.199-0.051 0.133-0.238 0.199-0.558 0.199-0.399 0-1.106-0.332-2.118-1-0.32 0.243-0.644 0.387-0.961 0.442l-0.8 0.519-0.52 0.442c0 0.105 0.082 0.414 0.238 0.918 0.133 0.535 0.254 0.906 0.36 1.121l2.558-1.199zm1.321 10.039c0.988-0.614 0.336-0.868-1.957-0.758-0.828 0-1.961-0.387-3.403-1.16-1.867-0.989-2.879-1.508-3.039-1.563l-0.281 0.039c0.082 1.442 0.348 2.375 0.801 2.801 0.64 0.613 3.172 1.227 7.601 1.84l0.278-1.199zm-16.918 18.359 1.558 2.68c-0.078-0.184-0.304-1.012-0.679-2.481-0.399-1.465-0.614-2.316-0.641-2.558h-0.117c-0.16-0.028-0.27-0.012-0.32 0.039-0.137 0.054-0.204 0.254-0.204 0.601 0 0.668 0.137 1.239 0.403 1.719zm-2.199-1.437v-0.043c-0.747-0.637-1.696-1.145-2.84-1.52-1.176-0.371-2.387-0.559-3.641-0.559l-1.242 0.04h-0.078l-0.039 0.039c-0.055 0.027-0.082 0.121-0.082 0.281-0.028 0.082-0.039 0.172-0.039 0.281l1.32 1.16c1.465 0.746 3.68 0.985 6.641 0.719v-0.398zm6.199-13.321c0.105 0.16 0.492 0.774 1.16 1.84 0.613 1.067 0.945 1.652 1 1.758 0.266-0.613 0.398-1.305 0.398-2.078 0-0.856-0.851-1.36-2.558-1.52zm-1.481-4.043c0.188 0.481 0.282 1 0.282 1.563l-0.043 0.437c-0.586-0.05-1.028-0.117-1.321-0.199-0.504-0.105-0.758-0.332-0.758-0.68 0-0.531 0.012-0.906 0.04-1.121-0.051-0.293-0.215-0.812-0.481-1.558l-0.359-0.84 0.64-0.238 1.16-0.043 0.719 0.082-1.758-1c-0.214-0.215-0.429-0.961-0.64-2.243l-0.16-1.32c0 0.883-0.106 1.895-0.321 3.043l-0.082 0.879 0.641 1.801c0.16 0.504 0.281 0.972 0.359 1.398v0.961l-0.039-0.039 0.039 0.68c-0.105-0.028-0.105 0 0 0.078v0.121l0.043-0.078c0.16 0.105 0.481 0.293 0.957 0.558 1.254 0.692 1.895 1.051 1.922 1.079l0.281-0.36c0.051-0.719 0.118-1.597 0.2-2.64-0.375-0.266-0.813-0.371-1.321-0.321zm-15.718 3.84c1.519 0 2.824-0.492 3.918-1.476 1.066-0.961 1.601-2.137 1.601-3.524h-0.601c-1.332 0.027-2.481 0.508-3.442 1.442-0.984 0.988-1.476 2.175-1.476 3.558zm1.839 10.602c-0.586-0.133-1.136-0.2-1.64-0.2-0.321 0-0.52 0.012-0.602 0.04v0.039l-0.199 0.121 1.641 1.32 0.8-1.32zm10-15.602h-3.8c0 0.723 0.187 1.336 0.558 1.844 0.375 0.531 0.828 0.797 1.36 0.797 0.535 0 0.988-0.266 1.363-0.797 0.371-0.508 0.543-1.121 0.519-1.844zm-0.32-16.476c-0.055 0-0.121 0.023-0.199 0.078h-0.363c-1.118 0.109-1.719 0.226-1.797 0.359-0.11 0.133-0.16 0.359-0.16 0.684 0 0.316 0.011 0.531 0.039 0.636 0.078 0.082 0.132 0.188 0.16 0.321l0.199 0.043c0.215 0.05 0.48 0.078 0.801 0.078 0.531 0 1.211-0.039 2.039-0.121-0.16-0.399-0.254-0.934-0.281-1.598-0.133-0.297-0.278-0.457-0.438-0.48zm1.918-13.364c-0.664-0.183-1.133-0.371-1.398-0.558 0.054-0.559 0.121-0.907 0.199-1.039l0.801-1.243c0.238-0.503 0.039-0.57-0.602-0.199-0.504 0.293-0.758 0.789-0.758 1.481l-0.121 1-0.082 0.16-0.117 0.922c0.32-0.082 0.719-0.094 1.199-0.043 0.508 0.082 0.906 0.203 1.199 0.359l0.602 0.082-0.922-0.922zm-3.277-0.437-0.84 0.039c-0.215 0.027-0.535 0.172-0.961 0.441-0.453 0.293-0.801 0.598-1.039 0.918v0.481c0.316 0.027 0.746-0.16 1.277-0.559 0.535-0.348 1.36-0.441 2.481-0.281l-0.918-1.039zm3.636 14.078c-0.105-0.106-0.238-0.156-0.398-0.156s-0.293 0.05-0.398 0.156c-0.11 0.109-0.161 0.226-0.161 0.359 0 0.137 0.051 0.254 0.161 0.364 0.105 0.105 0.238 0.16 0.398 0.16s0.293-0.055 0.398-0.16c0.11-0.11 0.161-0.227 0.161-0.364 0-0.133-0.051-0.25-0.161-0.359zm-6.277 0.641c-1.949-2.028-3.016-3.106-3.199-3.243l-0.121 0.282c-0.055 0.347 0.011 0.695 0.199 1.043 0.375 0.664 1.348 1.386 2.922 2.16 0.023 0.078 0.066 0.133 0.117 0.16 0.055 0.051 0.082-0.082 0.082-0.402z" inkscape:connector-curvature="0"/>
      <path id="path16" style="fill-rule:evenodd;fill:#635b52" d="m44.879 36.199c-1.039-0.344-2.305-0.691-3.801-1.039-1.25-0.293-3.172-0.894-5.758-1.801-0.586-0.398-0.945-0.664-1.082-0.8-0.265-0.266-0.504-0.637-0.718-1.118 0.109-0.32 0.269-0.613 0.48-0.882l0.48-0.2c0.028-0.027 0.055-0.054 0.082-0.078 0.266-0.269 0.493-0.469 0.68-0.601 0.106-0.078 0.238-0.172 0.399-0.282l7.402-3.238c-2.027 0.078-3.574 0.238-4.641 0.481l-2.562 1.199c-0.106-0.215-0.227-0.586-0.36-1.117-0.156-0.508-0.238-0.817-0.238-0.922 0.32-1.012 0.774-1.625 1.36-1.84l1.878-0.199c0.586 0 1.094-0.121 1.52-0.36 0.562-0.027 1.094-0.203 1.602-0.523 0.425 0.297 0.812 0.629 1.16 1 0.293 0.348 0.437 0.601 0.437 0.762 0 0.32-0.051 0.519-0.16 0.597-0.133 0.028-0.238 0.082-0.316 0.16l-0.684 0.563c0.375-0.109 0.949-0.27 1.723-0.481 0.636-0.187 1.105-0.375 1.398-0.558l0.84-1.481c0.027-0.027 0.039-0.082 0.039-0.16 0.055-0.082 0.242-0.121 0.563-0.121 0.586 0 1.386 0.242 2.398 0.719l0.719-0.117c-1.387-1.254-2.117-1.856-2.199-1.801-1.067 0.398-2.055 0.601-2.961 0.601-0.879 0-1.664-0.175-2.36-0.523-0.586-0.293-1.89-0.383-3.918-0.277-1.734 0.371-2.84 0.558-3.32 0.558-0.906 1.121-1.773 2.492-2.602 4.121-0.691 1.36-1.039 2.211-1.039 2.559 0 0.32 0.016 0.426 0.039 0.32v-0.039l0.043-0.242 0.36-0.801c0.265-0.613 0.547-1.144 0.84-1.597l0.64-0.762 0.399-0.399 0.039 1.399c0.109 0.668 0.375 1.215 0.8 1.641-0.187 0.027-0.558 0.253-1.117 0.679-0.453 0.375-0.789 0.68-1 0.922 0.317 1.758 1.879 3.215 4.68 4.359 1.465 0.614 3.293 1.266 5.48 1.961l0.957 0.282 1.2 0.117c0.457 0 1.23-0.184 2.32-0.559 1.016-0.347 1.707-0.64 2.082-0.879-0.828 0-1.453 0.133-1.879 0.399-0.055 0.078-0.414 0.16-1.082 0.238-0.695 0.082-1.109 0.133-1.242 0.16zm-8.719-14.758c-0.133-0.429-0.308-1.574-0.519-3.441-0.243-1.922-0.348-3.199-0.321-3.84l-0.082-0.762-0.199 8.442c0.32-0.16 0.695-0.293 1.121-0.399zm-8.398 27.719-0.403 0.481-0.359 0.359c-0.348 0.375-0.707 0.719-1.078 1.039-1.309 0.906-2 1.359-2.082 1.359-1.016 0-2.481-0.32-4.402-0.957-2.024-0.668-3.25-1.015-3.68-1.043-1.227 0.028-2.133 0-2.719-0.078-0.851-0.082-2.601-0.492-5.238-1.242h0.039c-1.281-0.398-2.32-0.625-3.121-0.68-1.199-0.078-2.012-0.16-2.438-0.238 0.719 0.399 1.547 0.668 2.481 0.801 1.172 0.184 1.957 0.344 2.359 0.48l4.879 1.239c0.105 3.015 0.215 4.695 0.32 5.039l0.239 0.441c-0.266-1.972-0.227-3.414 0.121-4.32 0-0.16 0.027-0.254 0.082-0.281l0.039-0.039c0.293-0.481 0.707-0.719 1.238-0.719 1.336 0 2.375 0.105 3.121 0.32 1.574 0.481 2.719 0.801 3.442 0.957-0.028 0.375-0.028 0.867 0 1.481v0.043c0.183 0.746 0.773 1.851 1.757 3.32 1.094 1.625 2.039 2.652 2.84 3.078l-0.398-0.68c-1.227-1.894-1.895-3.32-2-4.281-0.266-0.48-0.403-1.051-0.403-1.719 0-0.347 0.067-0.547 0.204-0.601 0.05-0.051 0.16-0.067 0.32-0.039h0.117c1.629-0.055 3.016-0.918 4.16-2.602 0.215-0.293 0.403-0.598 0.563-0.918zm-5.442-17.039-0.082-2.48-0.558 3.839c-0.934 0.028-2.16 0.239-3.68 0.641h-0.199c-0.106-0.027-0.176-0.109-0.199-0.242 0-0.238 0.277-0.824 0.839-1.758 0.481-0.855 0.68-1.641 0.598-2.359v-4.961c-0.773 4.265-1.293 6.758-1.559 7.48-0.292 0.774-1.054 1.641-2.281 2.598l-0.078 0.199c0 1.387-0.535 2.563-1.601 3.524-1.094 0.984-2.399 1.476-3.918 1.476l-0.282 0.082c0.188-0.027 0.879-0.082 2.078-0.16 1.309-0.16 2.403-0.52 3.282-1.078 2.215-0.641 4.746-0.617 7.601 0.078 4.239 1.039 6.36 3.586 6.36 7.641v0.121c0.214-0.883 0.32-1.84 0.32-2.883-0.055-0.106-0.387-0.691-1-1.758-0.668-1.066-1.055-1.68-1.16-1.84l-0.641-0.722c-0.027-0.028-0.668-0.387-1.922-1.079-0.476-0.265-0.797-0.453-0.957-0.558l-0.043 0.078v-0.121c-0.105-0.078-0.105-0.106 0-0.078l-0.039-0.68-0.16-0.961c-0.027-0.348-0.078-0.801-0.16-1.359l-0.641-1.801 0.082-0.879zm1 1.481-0.64 0.238 0.359 0.84c0.988 0 1.84 0.187 2.563 0.558 0.691 0.375 1.039 0.817 1.039 1.321-0.082 1.043-0.149 1.921-0.2 2.64l-0.043 0.481c0.403-0.426 0.696-0.852 0.883-1.282 0.051-0.132 0.145-0.425 0.281-0.878 0.161-0.188 0.383-0.305 0.68-0.36 0.184 0.16 0.281 0.613 0.281 1.36 0 0.48 0.09 0.878 0.278 1.199 0.16 0.347 0.359 0.519 0.601 0.519 0.239 0.696 0.532 1.321 0.879 1.883 0.11 0.641 0.36 1.559 0.762 2.758v0.082c0.051-0.535 0.16-1.508 0.32-2.922 0-1.094-0.226-2.199-0.683-3.32-0.239-0.664-0.664-1.731-1.278-3.199-0.32-0.961-1.203-1.547-2.64-1.758-1.684-0.055-2.828-0.11-3.442-0.16zm-5.679 1.476v-0.84l1.839-0.117c0.161 0 0.84 0.078 2.04 0.238l-0.079 0.719c0.028 0.723-0.148 1.336-0.519 1.844-0.375 0.531-0.828 0.797-1.363 0.797-0.532 0-0.985-0.266-1.36-0.797-0.371-0.508-0.558-1.121-0.558-1.844zm10.199-27.359c0.082 0.215 0.082 0.629 0 1.242-0.078 0.641-0.238 1.117-0.481 1.437-0.265 0.321-0.547 0.387-0.839 0.204-0.293-0.161-0.559-0.723-0.801-1.68-0.664-0.988-1.133-1.645-1.399-1.961-0.187-0.215-0.508-0.508-0.961-0.883-0.293-0.156-0.691-0.277-1.199-0.359-0.48-0.051-0.879-0.039-1.199 0.043l0.117-0.922 0.082-0.16 0.121-1c-0.961 0.082-1.469 0.132-1.519 0.16-0.43 0.105-0.707 0.332-0.84 0.68l0.558 0.16 0.282 0.121 0.918 1.039c1.414 0 2.613 1.027 3.601 3.082 0.985 2.078 1.481 4.57 1.481 7.48-0.723 0.719-1.696 1.106-2.922 1.16-1.36-0.082-2.36-0.07-3 0.04-1.172-0.586-2.133-1.122-2.879-1.602-0.106 0.16-0.387 0.188-0.84 0.082l-0.043 0.477c1.524 1.363 3.016 2.066 4.481 2.121h0.363c0.078-0.055 0.144-0.082 0.199-0.082 1.625-0.586 3.238-1.09 4.84-1.52 0.851-0.371 1.277-1.226 1.277-2.558l-0.078-1.84c-0.082-0.348-0.055-0.641 0.078-0.879 0.055-0.082 0.203-0.242 0.442-0.481 0.132-0.187 0.254-0.855 0.359-2l0.762-0.039c0.371 0 0.906 0.492 1.597 1.481l0.122-0.84c0.027-0.934-0.332-1.508-1.082-1.723 0.136-1.597 0.16-4.117 0.082-7.558l-0.122-0.641c-0.105 1.359-0.21 2.586-0.32 3.68-0.183 2.105-0.598 3.453-1.238 4.039zm-3.238-1.797c0.265 0.211 0.503 0.449 0.718 0.719 0.641 0.746 1.012 1.558 1.121 2.437l0.2 0.402 0.039-1.718c0-0.828-0.16-1.535-0.481-2.121-0.32-0.586-0.894-1.176-1.719-1.762-0.453-0.293-1.132-0.387-2.039-0.277l-0.601 0.039c-0.078 0.132-0.145 0.48-0.199 1.039 0.851 0.109 1.597 0.347 2.238 0.718 0.266 0.137 0.508 0.309 0.723 0.524z" inkscape:connector-curvature="0"/>
      <path id="path18" style="fill-rule:evenodd;fill:#877e74" d="m45.762 29.762 1.199 0.476c0-0.238-0.402-0.398-1.199-0.476zm-2.684-0.403-1.398-0.199c0.242-0.16 0.785-0.398 1.64-0.719l0.121-0.402c-1.894-0.16-3.867 0.199-5.921 1.082-1.493 0.613-2.508 1.027-3.04 1.238l-0.48 0.203c-0.215 0.266-0.375 0.559-0.48 0.879 0.214 0.481 0.453 0.852 0.718 1.121 0.133 0.133 0.496 0.399 1.082 0.797 0.801 0.188 2.282 0.336 4.442 0.442 2.05 0.293 3.758 1.094 5.117 2.398 0.133-0.023 0.547-0.078 1.242-0.16 0.664-0.078 1.024-0.16 1.078-0.238l0.442-0.321c-6.453-2.48-10.774-3.785-12.961-3.918l-0.239-0.121 2.719-0.121c0.586-0.238 1.281-0.558 2.078-0.961 0.16-0.05 0.617-0.183 1.364-0.398 0.183-0.055 0.398-0.106 0.636-0.16 1.121-0.293 1.735-0.442 1.84-0.442zm5.481-1.8c-0.586-0.293-1.118-0.438-1.598-0.438l-0.762 0.078c-0.133 0.055-0.226 0.094-0.277 0.121-0.082 0.078-0.121 0.282-0.121 0.602l0.078 0.879c1.066 0.238 1.656 0.785 1.762 1.64 1.332 0.747 2.121 1.239 2.359 1.481 0.266 0.453 0.746 1.039 1.441 1.758v-0.078c0.024-0.348 0.039-0.68 0.039-1l-2.8-3.204c0.293-0.16 0.855-0.238 1.679-0.238h0.082c-0.132-0.265-0.507-0.652-1.121-1.16l-0.761-0.441zm-23.161 20.761c0.082 0.078 0.137 0.149 0.161 0.2 0.027 0.027 0.043 0.214 0.043 0.558 0 0.137-0.176 0.574-0.524 1.32-0.344 0.801-0.547 1.297-0.598 1.481-0.292-0.106-0.96-0.238-2-0.399-1.039-0.132-1.746-0.281-2.121-0.441-1.148-0.504-2.148-0.801-3-0.879-0.16-0.027-1.281-0.039-3.359-0.039-0.32 0-1.012-0.121-2.078-0.359-1.414-0.297-2.777-0.524-4.082-0.684h-0.039c2.64 0.75 4.387 1.16 5.238 1.242 0.586 0.078 1.496 0.106 2.723 0.078 0.426 0.028 1.652 0.375 3.679 1.043 1.918 0.637 3.387 0.957 4.399 0.957 0.082 0 0.773-0.453 2.082-1.359 0-0.027 0.09-0.961 0.277-2.801 0-0.265-0.09-0.863-0.277-1.797-0.215-0.906-0.32-1.496-0.32-1.761 0-1.172-0.414-1.973-1.243-2.399-0.265-0.136-1.89-0.601-4.879-1.402l-1.039-0.078c0.293 0.105 1.079 0.32 2.36 0.64 0.773 0.211 1.293 0.52 1.558 0.918l0.243 0.52c-3.469-0.481-6.055-0.734-7.762-0.758l-0.84 0.039c0.559-0.375 1.16-0.879 1.801-1.519-0.696-0.641-1.242-0.961-1.641-0.961-0.48 0-1.773 0.254-3.879 0.761-1.976 0.504-3.426 0.918-4.359 1.239-0.75 0.425-1.442 0.84-2.082 1.242-1.227 0.773-2.16 1.426-2.801 1.957 1.281-0.399 2.547-0.598 3.801-0.598h2.519c0-0.773 0.227-1.441 0.68-2 0.43-0.535 0.949-0.801 1.563-0.801-0.297 0.774-0.364 1.375-0.204 1.801 1.149-0.453 2.215-0.679 3.204-0.679 2.851 0 5.304 0.16 7.359 0.476 1.039 0.16 1.934 0.867 2.68 2.121 0.586 1.309 0.945 2.055 1.078 2.242 0.453 0 0.855 0.079 1.203 0.239 0.316 0.187 0.476 0.398 0.476 0.64zm-12.199-3.761c0.028 0.082 0.082 0.16 0.16 0.242 0.188 0.187 0.442 0.293 0.762 0.32 0.32 0.106 0.641 0.254 0.957 0.438l1.363 0.281h0.278l-1.239-0.52-0.64-0.16h0.238c-0.586-0.238-1.211-0.441-1.879-0.601zm-2.359-3.68-1.238 0.601c0.265-0.347 0.57-0.574 0.918-0.679l0.32 0.078zm-1.078 3 0.918 0.641 1.281 0.242-0.16-0.524-2.039-0.359zm14.679-29.84 0.039-1.32c0-1.492-0.746-2.653-2.242-3.481-1.359-0.718-2.57-0.879-3.636-0.48l-0.762-0.078h-0.199c0.586-0.078 2.171-0.172 4.757-0.282l0.082-0.957c-0.242-0.054-0.625-0.082-1.16-0.082-0.32 0-1.508 0.321-3.558 0.961-0.16 0-0.309 0.012-0.442 0.039h-0.039c-0.187 0.028-0.347 0.067-0.48 0.121-0.16 0.079-0.254 0.184-0.281 0.321-0.028 0.023-0.04 0.051-0.04 0.078-0.027 0.215 0.067 0.469 0.282 0.762l-2.364 0.437c-0.238 0.215-0.464 0.469-0.679 0.762 0.027 0.082 0.082 0.121 0.16 0.121 0.027 0.027 0.066 0.027 0.121 0 0.668-0.16 2.133-0.281 4.398-0.359 0-0.348-0.16-0.602-0.476-0.762l0.719-0.078c1.597 0 2.972 0.41 4.121 1.238 1.117 0.852 1.679 1.867 1.679 3.039zm0.161 1.199c-0.508 0.297-1.508 0.496-3 0.602-1.364 0.082-3 0.066-4.922-0.039l0.039 0.039 3.121 1.762c0.64-0.11 1.64-0.122 3-0.043 1.226-0.051 2.199-0.438 2.922-1.161l-1.121-1.476v0.277l-0.039 0.039z" inkscape:connector-curvature="0"/>
      <path id="path20" style="fill-rule:evenodd;fill:#a99f92" d="m49.078 35.398c0.645 0 1.203-0.171 1.684-0.519 0.453-0.32 0.679-0.719 0.679-1.199-0.695-0.719-1.175-1.305-1.441-1.758-0.238-0.242-1.027-0.734-2.359-1.481l-0.239 0.559c0.614 0.188 1.305 0.695 2.078 1.52 0.559 0.585 0.934 1.066 1.122 1.441-0.481-0.481-0.961-0.922-1.442-1.32-0.453-0.348-0.719-0.52-0.801-0.52-0.32 0-0.797 0.199-1.437 0.598-0.613 0.347-1.215 0.48-1.801 0.402l-1.242-0.16 0.16-0.242c0.242-0.239 0.641-0.481 1.199-0.719l-2.199 0.238c0.375-0.078 1.016-0.343 1.922-0.797 0.961-0.48 1.625-0.882 2-1.203l-1.199-0.476-2.684-0.403c-0.105 0-0.719 0.149-1.84 0.442-0.238 0.054-0.453 0.105-0.64 0.16 0.613-0.082 1.32-0.094 2.121-0.039 0.828 0.051 2.133 0.144 3.918 0.277l-0.399 0.403c-1.785-0.59-3.558-0.629-5.32-0.122-2.508 0.719-4.254 1.094-5.238 1.122l1.48-0.282-2.722 0.121 0.242 0.118c2.187 0.136 6.508 1.441 12.961 3.921l-0.442 0.321c0.426-0.266 1.055-0.403 1.879-0.403zm2.203-4.878 0.199 2.082c0-0.508-0.027-1.016-0.082-1.524l-0.117-0.558zm-25.883 17.8c-0.16 0.559-0.437 1.067-0.839 1.52 0.16-0.801-0.161-1.305-0.957-1.52-0.856-0.082-1.348-0.16-1.481-0.242-0.348-0.293-0.883-0.973-1.601-2.039-0.559-0.879-1.028-1.32-1.399-1.32-0.723 0-1.613-0.239-2.68-0.719-1.066-0.48-2.054-0.719-2.961-0.719-0.32 0-0.601 0.067-0.839 0.199l-0.243 0.2c0.137 0.027 0.297 0.132 0.481 0.32 0.16 0.188 0.266 0.375 0.32 0.559 0.668 0.16 1.293 0.363 1.879 0.601 1.016-0.215 2.094 0.106 3.242 0.961 0.985 0.746 1.547 1.332 1.68 1.758-0.133-0.32-0.652-0.746-1.559-1.277-0.933-0.536-1.921-0.961-2.961-1.282l1.239 0.52h-0.278l-1.363-0.281 1.883 1.363-0.883-0.481c-0.851-0.136-2.172-0.402-3.957-0.8-0.16-0.028-1.082-0.039-2.762-0.039-1.359 0-2.894 0.117-4.597 0.359-2.297 0.344-3.774 0.812-4.442 1.398 0.266 0.243 0.653 0.442 1.16 0.602l0.079 0.039 0.722 0.16c0.426 0.078 1.239 0.16 2.438 0.238 0.801 0.055 1.84 0.282 3.121 0.68 1.305 0.16 2.668 0.387 4.082 0.684 1.066 0.238 1.758 0.359 2.078 0.359 2.078 0 3.199 0.012 3.359 0.039 0.852 0.078 1.852 0.371 3 0.879 0.375 0.16 1.082 0.309 2.121 0.441 1.04 0.161 1.708 0.293 2 0.399 0.051-0.184 0.254-0.68 0.598-1.481 0.348-0.746 0.524-1.183 0.524-1.32 0-0.344-0.016-0.531-0.043-0.558-0.024-0.055-0.079-0.122-0.161-0.2zm23.161-20.761 0.761 0.441 1.239 0.879c-1.094-0.852-1.891-1.371-2.399-1.559l0.399 0.239zm-19.918 19.203c-0.188 0.851-0.453 1.625-0.801 2.316l0.121-0.156c0.426-0.723 0.652-1.442 0.68-2.16zm-19.243-3.481 0.082 0.239c1.973-0.426 5-0.547 9.079-0.36 1.496 0.078 2.695 0.707 3.601 1.879 0.746 1.281 1.266 2.082 1.559 2.402-0.133-0.187-0.492-0.933-1.078-2.242-0.746-1.254-1.641-1.961-2.68-2.121-2.055-0.316-4.508-0.476-7.359-0.476-0.989 0-2.055 0.226-3.204 0.679zm-1.718 1.278-0.321-0.278h-2.199c0.719 0.024 1.559 0.117 2.52 0.278zm2.082-0.68 2.039 0.359c-0.668-0.343-1.387-0.519-2.16-0.519l0.121 0.16zm0.918 0.641 0.761 0.281c0.161-0.028 0.332-0.039 0.52-0.039l-1.281-0.242zm2.761-32.918 0.559-0.641c-0.055 0.027-0.094 0.027-0.121 0-0.184 0.238-0.332 0.453-0.438 0.641zm3.239 4.199c1.922 0.105 3.558 0.121 4.922 0.039 1.492-0.106 2.492-0.305 3-0.602l-0.762-0.476c0.32 0.133 0.586 0.277 0.801 0.437v-0.277l-0.2-0.883c0-1.172-0.562-2.187-1.679-3.039-1.149-0.828-2.524-1.242-4.121-1.242 1.492 0.054 2.398 0.387 2.718 1 1.094 2 1.922 3.336 2.481 4-0.774-0.371-1.481-1.172-2.121-2.399-0.531-1.039-1.16-1.558-1.879-1.558-3.84 0.613-5.961 1.066-6.36 1.359 1.2 1.84 2.266 3.055 3.2 3.641zm0.281 0.199c0.746 0.48 1.707 1.012 2.879 1.602l-3.121-1.762 0.242 0.16z" inkscape:connector-curvature="0"/>
      <path id="path22" style="fill-rule:evenodd;fill:#c5bbae" d="m40.602 29.961c-0.75 0.211-1.204 0.344-1.364 0.398-0.797 0.403-1.492 0.719-2.078 0.961l-1.48 0.282c0.988-0.028 2.734-0.403 5.242-1.122 1.758-0.507 3.531-0.468 5.316 0.122l0.403-0.403c-1.786-0.133-3.094-0.226-3.918-0.277-0.801-0.055-1.508-0.043-2.121 0.039zm6.796 1.039c-0.265 0.078-0.519 0.188-0.757 0.32-0.348 0.215-0.813 0.442-1.403 0.68-0.558 0.238-0.957 0.48-1.199 0.719l-0.16 0.242 1.242 0.16c0.586 0.078 1.188-0.055 1.801-0.402 0.64-0.399 1.117-0.598 1.437-0.598 0.082 0 0.348 0.172 0.801 0.52 0.481 0.398 0.961 0.839 1.442 1.32-0.188-0.375-0.563-0.856-1.122-1.441-0.773-0.825-1.468-1.332-2.082-1.52zm-32.32 14.559c-0.316-0.184-0.637-0.332-0.957-0.438-0.32-0.027-0.574-0.133-0.762-0.32-0.078-0.082-0.132-0.16-0.16-0.242-0.054-0.184-0.16-0.371-0.32-0.559-0.184-0.188-0.348-0.293-0.481-0.32l0.243-0.2c0.238-0.132 0.519-0.199 0.839-0.199 0.907 0 1.895 0.239 2.961 0.719 1.067 0.48 1.957 0.719 2.68 0.719 0.371 0 0.84 0.441 1.399 1.32 0.718 1.066 1.253 1.75 1.601 2.039 0.133 0.082 0.625 0.16 1.481 0.242 0.796 0.215 1.117 0.719 0.957 1.52 0.402-0.453 0.679-0.961 0.839-1.52 0-0.242-0.16-0.453-0.476-0.64-0.348-0.16-0.75-0.239-1.203-0.239-0.293-0.32-0.813-1.121-1.559-2.402-0.906-1.172-2.105-1.801-3.601-1.879-4.079-0.187-7.106-0.066-9.079 0.36l0.161 0.199c0.773 0 1.492 0.176 2.16 0.519l0.16 0.524c-0.188 0-0.359 0.011-0.52 0.039-0.613 0.027-1.242 0.027-1.882 0-0.774 0-1.399-0.082-1.879-0.242-0.961-0.161-1.801-0.254-2.52-0.278h-0.32c-1.254 0-2.52 0.199-3.801 0.598-0.344 0.32-0.586 0.562-0.719 0.723-0.215 0.238-0.32 0.531-0.32 0.878 0 0.348 0.055 0.598 0.16 0.758 0.106 0.16 0.16 0.203 0.16 0.121 0.668-0.586 2.149-1.054 4.442-1.398 1.703-0.242 3.238-0.359 4.597-0.359 1.68 0 2.602 0.011 2.762 0.039 1.785 0.398 3.106 0.664 3.957 0.8l0.883 0.481-1.883-1.363zm0-0.399h-0.238l0.64 0.16c1.04 0.321 2.028 0.746 2.961 1.282 0.907 0.531 1.426 0.957 1.559 1.277-0.133-0.426-0.695-1.012-1.68-1.758-1.148-0.855-2.226-1.176-3.242-0.961zm-1.078-34.199l-0.559 0.641v0.597l0.039-0.039c0.399-0.293 2.52-0.746 6.36-1.359 0.719 0 1.348 0.519 1.879 1.558 0.64 1.227 1.347 2.028 2.121 2.403-0.559-0.668-1.387-2-2.481-4-0.32-0.617-1.226-0.95-2.718-1l-0.719 0.078c0.316 0.16 0.476 0.414 0.476 0.762-2.265 0.078-3.73 0.199-4.398 0.359zm10.641 4.238c-0.215-0.16-0.481-0.304-0.801-0.437l0.762 0.476 0.039-0.039z" inkscape:connector-curvature="0"/>
      <path id="path24" style="fill-rule:evenodd;fill:#726b63" d="m34.48 30.359c0.532-0.214 1.547-0.625 3.04-1.238 2.054-0.883 4.027-1.242 5.921-1.082l-0.121 0.399c-0.851 0.32-1.398 0.562-1.64 0.722l1.398 0.199 2.684 0.399c0.8 0.082 1.199 0.242 1.199 0.48-0.375 0.321-1.039 0.723-2 1.2-0.906 0.457-1.547 0.722-1.922 0.8l2.203-0.238c0.586-0.242 1.051-0.469 1.399-0.68 0.238-0.132 0.492-0.242 0.761-0.32l0.239-0.562c-0.106-0.852-0.692-1.399-1.762-1.637l-0.078-0.883c0-0.32 0.039-0.52 0.121-0.598 0.051-0.027 0.144-0.066 0.277-0.121l0.762-0.078c0.48 0 1.012 0.145 1.601 0.438l-0.402-0.239-0.48-0.359c-1.868-0.695-2.852-1.039-2.957-1.039-0.082 0.133-0.645 0.211-1.684 0.238l-7.398 3.238c-0.161 0.11-0.293 0.204-0.403 0.282-0.183 0.132-0.41 0.332-0.679 0.601-0.024 0.024-0.051 0.051-0.079 0.078zm10.399 5.84c-1.359-1.304-3.067-2.105-5.117-2.398-2.16-0.106-3.641-0.254-4.442-0.442 2.586 0.907 4.508 1.508 5.758 1.801 1.496 0.348 2.762 0.695 3.801 1.039zm5.68-7.32l-1.239-0.879c0.614 0.508 0.985 0.895 1.118 1.16h-0.079c-0.828 0-1.386 0.078-1.679 0.238l2.797 3.204-0.2-2.082c-0.238-0.801-0.476-1.348-0.718-1.641zm-35.879 10.043c-0.879 0.558-1.973 0.918-3.282 1.078-1.199 0.078-1.89 0.133-2.078 0.16-1.359 0.133-2.492 0.641-3.398 1.52 0.933-0.321 2.383-0.735 4.359-1.239 2.106-0.507 3.399-0.761 3.879-0.761 0.399 0 0.945 0.32 1.641 0.961-0.641 0.64-1.242 1.148-1.801 1.519l0.84-0.039c1.707 0.024 4.293 0.277 7.762 0.758l-0.243-0.52c-0.265-0.398-0.785-0.707-1.558-0.918-1.281-0.32-2.067-0.535-2.36-0.64l1.039 0.078c2.985 0.801 4.614 1.266 4.879 1.402 0.829 0.426 1.243 1.227 1.243 2.399 0 0.265 0.105 0.851 0.32 1.761 0.183 0.934 0.277 1.532 0.277 1.797-0.187 1.84-0.277 2.774-0.277 2.801 0.371-0.32 0.73-0.664 1.078-1.039l0.359-0.359c0-0.028 0.016-0.055 0.039-0.082 0.293-0.907 0.59-1.758 0.883-2.559 0-2.879-1.746-4.988-5.242-6.32-2.027-0.774-3.906-1.16-5.641-1.16-0.32 0-0.839-0.094-1.558-0.282-0.695-0.211-1.078-0.316-1.16-0.316zm11.082-22.524c0-2.906-0.496-5.398-1.481-7.476-0.988-2.055-2.187-3.082-3.601-3.082-0.535 0.187-1.149 0.48-1.84 0.879-0.613 0.722-1.078 1.226-1.399 1.519l-0.121 0.121c0.133-0.027 0.282-0.039 0.442-0.039 2.05-0.64 3.238-0.961 3.558-0.961 0.535 0 0.918 0.028 1.16 0.082l-0.082 0.957c-2.586 0.11-4.171 0.204-4.757 0.282h0.199l0.762 0.082c1.066-0.403 2.277-0.242 3.636 0.48 1.496 0.824 2.242 1.985 2.242 3.481l-0.039 1.316 0.2 0.883 1.121 1.476zm-11.364-6.32 2.364-0.437c-0.215-0.293-0.309-0.547-0.282-0.762 0-0.024 0.012-0.051 0.04-0.078-0.586 0.347-1.293 0.773-2.122 1.277z" inkscape:connector-curvature="0"/>
      <path id="path26" style="fill-rule:evenodd;fill:#6d655a" d="m32.879 26.48c-0.156 0.266-0.332 0.653-0.52 1.161l-0.121 0.757c0.508-0.613 0.989-1.117 1.442-1.519l-0.039-1.399-0.403 0.399-0.359 0.601zm16.121-2.601c0.215 0.242 0.375 0.414 0.48 0.519 0.133 0.188 0.2 0.454 0.2 0.801 0 0.11-0.215 0.36-0.641 0.762-0.48 0.48-0.934 0.812-1.359 1l0.48 0.359c0.508 0.188 1.309 0.707 2.402 1.559 0.239 0.293 0.477 0.84 0.719 1.641l0.117 0.558h0.043c0.239-2.293 0.36-3.64 0.36-4.039 0-0.773-0.149-2.519-0.442-5.238-0.105 0-0.226-0.094-0.359-0.281-0.266-0.348-0.426-0.536-0.48-0.559-0.375 0.957-0.641 1.598-0.801 1.918l-0.16 0.121c-0.293-1.441-1.211-2.215-2.758-2.32-0.481-0.028-1.492-0.321-3.039-0.883-1.469-0.586-2.227-0.879-2.282-0.879-0.082 0-1.816 0.828-5.203 2.48 1.789-0.265 2.977-0.265 3.563 0l-1.563 0.36c2.028-0.106 3.336-0.012 3.922 0.281 0.692 0.348 1.481 0.52 2.36 0.52 0.906 0 1.894-0.2 2.961-0.602 0.078-0.051 0.812 0.547 2.199 1.801l-0.719 0.121zm-11.48 0.519 0.242-0.238c0.238-0.16 0.476-0.293 0.718-0.398l-1.882 0.199c-0.586 0.211-1.039 0.824-1.36 1.84l0.52-0.442 0.801-0.519c0.32-0.055 0.64-0.199 0.961-0.442zm-9 14.122c0-0.747-0.094-1.2-0.282-1.36-0.293 0.051-0.519 0.172-0.679 0.36 0.082 0.105 0.402 0.441 0.961 1zm-5.2-4.918c0.614 0.05 1.758 0.105 3.442 0.16 1.437 0.211 2.316 0.797 2.636 1.758 0.614 1.468 1.043 2.535 1.282 3.199 0.453 1.121 0.679 2.226 0.679 3.32-0.16 1.414-0.265 2.387-0.32 2.922v-0.082c-0.211 1.148-0.332 1.734-0.359 1.762-0.184 0.504-0.907 1.812-2.157 3.918 0.586-0.266 1.426-1.2 2.516-2.797 1.176-1.735 1.762-3.121 1.762-4.16 0-1.122-0.199-2.602-0.602-4.442-0.371-1.652-0.707-2.801-1-3.441-0.293-0.692-1.519-1.414-3.679-2.16-1.946-0.664-3.305-0.973-4.079-0.918l1.758 1-0.719-0.082-1.16 0.043zm2 2.636c0.508-0.05 0.946 0.055 1.321 0.321 0-0.504-0.348-0.946-1.039-1.321-0.723-0.371-1.575-0.558-2.563-0.558 0.266 0.746 0.43 1.265 0.481 1.558h1.8zm-10.8-1.16h0.601l0.078-0.199-1.32 0.199h0.641zm8.359-0.277c0.082 0.558 0.133 1.011 0.16 1.359l0.199 0.039c-0.078-0.426-0.199-0.894-0.359-1.398zm-1.438 0.277 0.079-0.719c-1.2-0.16-1.879-0.238-2.04-0.238l-1.839 0.117v0.84h3.8zm6.239-23.758c-0.239 0.239-0.387 0.399-0.442 0.481-0.133 0.238-0.16 0.531-0.078 0.879 0.238-0.239 0.414-0.692 0.52-1.36zm-3.2-7.441c0.825 0.586 1.399 1.176 1.719 1.762 0.321 0.586 0.481 1.293 0.481 2.121l-0.039 1.718-0.2-0.402c-0.109-0.879-0.48-1.691-1.121-2.437-0.215-0.266-0.453-0.508-0.718-0.719 0.132 0.133 0.253 0.266 0.359 0.398 0.504 0.719 0.758 1.586 0.758 2.602 0.242 0.957 0.508 1.519 0.801 1.68 0.292 0.187 0.574 0.121 0.839-0.2 0.243-0.32 0.403-0.8 0.481-1.441 0.082-0.613 0.082-1.027 0-1.238 0.055-1.071-0.172-2.188-0.68-3.364-0.265-0.636-0.695-1.586-1.281-2.839 0 0.64-0.465 1.425-1.399 2.359zm-5.558 0.961 0.84-0.039-0.282-0.121-0.558 0.16zm2.719-0.16c0.265 0.187 0.734 0.375 1.398 0.558 0.293 0 0.574 0.055 0.84 0.16-0.641-0.371-1.387-0.613-2.238-0.718z" inkscape:connector-curvature="0"/>
      <path id="path28" style="fill-rule:evenodd;fill:#615b54" d="m14.68 38.922c0.082 0 0.465 0.105 1.16 0.316 0.719 0.188 1.238 0.282 1.558 0.282 1.735 0 3.614 0.386 5.641 1.16 3.496 1.332 5.242 3.441 5.242 6.32-0.293 0.801-0.586 1.652-0.883 2.559-0.023 0.027-0.039 0.054-0.039 0.082l0.403-0.481 0.078-0.082c0.348-0.691 0.613-1.465 0.801-2.316v-0.121c0-4.055-2.121-6.602-6.36-7.641-2.855-0.695-5.386-0.719-7.601-0.078zm-3.239 5.879-0.761-0.281-0.918-0.641-0.121-0.16-0.161-0.199-0.082-0.239c-0.16-0.426-0.093-1.027 0.204-1.801-0.614 0-1.137 0.266-1.563 0.801-0.453 0.559-0.68 1.227-0.68 2l0.321 0.278c0.48 0.16 1.105 0.242 1.879 0.242 0.64 0.027 1.269 0.027 1.882 0zm-0.601-3.922-0.32-0.078c-0.348 0.105-0.653 0.332-0.918 0.679l1.238-0.601z" inkscape:connector-curvature="0"/>
    </g>
  </g>
<metadata><rdf:RDF><cc:Work><dc:format>image/svg+xml</dc:format><dc:type rdf:resource="http://purl.org/dc/dcmitype/StillImage"/><cc:license rdf:resource="http://creativecommons.org/licenses/publicdomain/"/><dc:publisher><cc:Agent rdf:about="http://openclipart.org/"><dc:title>Openclipart</dc:title></cc:Agent></dc:publisher></cc:Work><cc:License rdf:about="http://creativecommons.org/licenses/publicdomain/"><cc:permits rdf:resource="http://creativecommons.org/ns#Reproduction"/><cc:permits rdf:resource="http://creativecommons.org/ns#Distribution"/><cc:permits rdf:resource="http://creativecommons.org/ns#DerivativeWorks"/></cc:License></rdf:RDF></metadata></svg>
