<?xml version="1.0" encoding="UTF-8" standalone="no"?>
<!-- Created with Inkscape (http://www.inkscape.org/) -->
<!-- ClipArt by Arvin61r58 (http://openclipart.org/user-detail/Arvin61r58) -->
<svg
   xmlns:dc="http://purl.org/dc/elements/1.1/"
   xmlns:cc="http://creativecommons.org/ns#"
   xmlns:rdf="http://www.w3.org/1999/02/22-rdf-syntax-ns#"
   xmlns:svg="http://www.w3.org/2000/svg"
   xmlns="http://www.w3.org/2000/svg"
   xmlns:xlink="http://www.w3.org/1999/xlink"
   version="1.1"
   id="Layer_1"
   x="0px"
   y="0px"
   width="455"
   height="446"
   viewBox="0 0 455 446"
   enable-background="new 0 0 479 436"
   xml:space="preserve"><title
   id="title4188">Fireball</title><metadata
   id="metadata8"><rdf:RDF><cc:Work
       rdf:about=""><dc:format>image/svg+xml</dc:format><dc:type
         rdf:resource="http://purl.org/dc/dcmitype/StillImage" /><dc:title>Fireball</dc:title><cc:license
         rdf:resource="http://creativecommons.org/publicdomain/zero/1.0/" /><dc:subject><rdf:Bag><rdf:li>fireball</rdf:li><rdf:li>fire ball</rdf:li><rdf:li>fire</rdf:li><rdf:li></rdf:li></rdf:Bag></dc:subject><dc:description>fireball</dc:description><dc:creator><cc:Agent><dc:title>Arvin61r58</dc:title></cc:Agent></dc:creator><dc:publisher><cc:Agent><dc:title>Openclipart.org</dc:title></cc:Agent></dc:publisher><dc:identifier>https://openclipart.org/</dc:identifier><dc:source>https://openclipart.org/user-detail/Arvin61r58</dc:source><dc:contributor><cc:Agent><dc:title>NicholasJudy456 (https://openclipart.org/user-detail/NicholasJudy456)</dc:title></cc:Agent></dc:contributor></cc:Work><cc:License
       rdf:about="http://creativecommons.org/publicdomain/zero/1.0/"><cc:permits
         rdf:resource="http://creativecommons.org/ns#Reproduction" /><cc:permits
         rdf:resource="http://creativecommons.org/ns#Distribution" /><cc:permits
         rdf:resource="http://creativecommons.org/ns#DerivativeWorks" /></cc:License></rdf:RDF></metadata><defs
   id="defs6"><linearGradient
     id="linearGradient4479"><stop
       stop-color="#fcfc9e"
       offset="0"
       id="stop4481" /><stop
       stop-color="#fafa8f"
       offset="0.0625"
       id="stop4483" /><stop
       stop-color="#fbfb7a"
       offset="0.125"
       id="stop4485" /><stop
       stop-color="#fcf860"
       offset="0.1875"
       id="stop4487" /><stop
       stop-color="#fbf347"
       offset="0.25"
       id="stop4489" /><stop
       stop-color="#faef2e"
       offset="0.3125"
       id="stop4491" /><stop
       stop-color="#f8e81c"
       offset="0.375"
       id="stop4493" /><stop
       stop-color="#f1d816"
       offset="0.4375"
       id="stop4495" /><stop
       stop-color="#f0c122"
       offset="0.5"
       id="stop4497" /><stop
       stop-color="#f8a932"
       offset="0.5625"
       id="stop4499" /><stop
       stop-color="#f89627"
       offset="0.625"
       id="stop4501" /><stop
       stop-color="#f48419"
       offset="0.6875"
       id="stop4503" /><stop
       stop-color="#eb7609"
       offset="0.75"
       id="stop4505" /><stop
       stop-color="#da6b03"
       offset="0.8125"
       id="stop4507" /><stop
       stop-color="#c85f00"
       offset="0.875"
       id="stop4509" /><stop
       stop-color="#b45500"
       offset="0.9375"
       id="stop4511" /><stop
       stop-color="#a24e01"
       offset="1"
       id="stop4513" /></linearGradient><radialGradient
     gradientUnits="userSpaceOnUse"
     gradientTransform="matrix(1,0,0,0.95891008,0,8.9805255)"
     r="211.95287"
     fy="218.55786"
     fx="226.95287"
     cy="218.55786"
     cx="226.95287"
     id="radialGradient4543"
     xlink:href="#linearGradient4479" /><filter
     id="filter4910"
     style="color-interpolation-filters:sRGB"
     x="0"
     width="1"
     y="0"
     height="1"><feTurbulence
       id="feTurbulence4912"
       baseFrequency="0.027"
       type="turbulence"
       seed="0"
       numOctaves="5" /><feGaussianBlur
       id="feGaussianBlur4914"
       result="result91"
       stdDeviation="0.5" /><feDisplacementMap
       baseFrequency="0.032000000000000001"
       id="feDisplacementMap4916"
       in2="result91"
       result="result1"
       in="SourceGraphic"
       xChannelSelector="R"
       yChannelSelector="G"
       scale="50" /><feComposite
       id="feComposite4918"
       operator="atop"
       in2="SourceGraphic"
       in="result1" /></filter></defs>  <path
   transform="matrix(1.0025814,0,0,1.0234018,-0.03871259,-0.67250691)"
   id="path4136"
   d="m 212.80339,418.77534 c -18.51566,-6.60595 25.00211,-1.78573 7.49048,-8.93134 -7.35007,-3.42256 -14.66019,-7.78302 -22.8102,-4.10415 -21.59786,5.01689 -45.96931,3.76734 -65.16878,-8.11163 -2.65907,-11.962 25.29759,-0.0717 35.1478,-2.74412 23.69217,0.40362 -1.84169,-4.09303 -8.7084,-9.47676 7.73482,1.11166 40.25146,2.02031 17.67854,-4.02937 -18.71759,-4.06734 -38.0872,-2.76779 -56.92893,-3.81811 -11.02859,-4.95185 -24.55638,-6.97738 -31.97679,-17.35067 8.305353,3.93642 16.08173,8.72813 25.33959,4.76383 16.72419,-3.48962 -17.426629,-8.27411 -21.571554,-12.01846 -11.775742,-5.60551 -25.661515,-7.92477 -36.387388,-15.36716 -9.727749,-8.52672 -19.499634,-17.00355 -29.170259,-25.59509 -4.34781,-13.52059 -7.774,-33.12296 7.359813,-15.16607 8.649788,9.98917 27.129758,16.09822 35.785719,17.70844 C 54.199268,299.50153 41.191776,282.94946 33.35932,263.24048 27.141759,249.66686 19.921922,236.17209 15,222.19832 c 0,-16.59833 0,-33.19667 0,-49.795 7.438506,-9.3739 25.273755,-30.17029 14.764255,-5.58911 -4.85143,18.88864 7.119815,-14.30466 6.317725,8.24318 6.793671,11.92611 6.0898,-24.91607 8.105156,-1.01381 1.030967,8.43768 3.891308,30.1951 4.01546,9.84474 1.261105,-22.52959 1.610279,-45.51786 4.52946,-67.75678 3.892609,-8.07759 10.900696,-19.302788 7.320317,-2.30117 -0.493988,8.43677 -1.61013,39.81733 3.966309,34.18038 1.202085,-21.01227 2.434531,-43.98845 16.50447,-61.031313 19.118671,-20.342931 39.583618,-42.142886 67.720258,-48.99456 9.38548,-3.872517 23.34257,-6.648015 8.38891,3.425669 -13.13453,6.275721 -22.62677,23.00929 -0.48171,18.859005 16.85464,-13.295277 32.9132,-28.466862 50.90078,-39.932004 15.26978,-1.397535 31.00014,-8.179474 46.03083,-3.257448 -9.63411,2.826643 -34.23696,1.862507 -33.51843,10.930936 13.7632,-2.906301 49.14316,-12.023314 51.18017,-0.346066 -31.90929,12.366666 -58.68117,34.140592 -86.77639,53.089514 -6.33304,13.497198 15.53364,-12.130294 22.25343,-13.531665 16.35271,-10.598922 34.89197,-18.176746 54.68255,-17.558046 10.59597,-0.91209 37.09273,-2.684156 13.30743,3.769697 -7.77273,0.786629 -36.53199,14.717798 -24.66122,17.765927 7.78659,-0.758542 40.25165,-12.184281 19.8738,-0.125446 -21.74354,11.743713 26.50445,2.348212 33.21435,0.376481 -6.51447,-8.955994 -31.95113,-5.736183 -12.67803,-13.836759 8.9406,-5.905935 20.675,-2.922698 30.89969,-4.742953 10.49503,-2.251585 19.21947,6.296412 28.30095,10.109075 7.72499,5.138501 24.68233,19.328517 5.04389,11.715291 -7.33353,-3.69214 -27.58151,-5.164178 -10.248,1.56227 17.23569,1.457518 31.776,16.691648 45.74973,26.485905 12.92614,11.45641 -17.33987,-5.366823 -4.50947,9.10614 10.5983,17.5889 30.37242,30.19268 30.94852,52.44424 6.77835,26.57064 -7.74094,-4.41501 -13.27382,-14.02174 -4.40814,-8.15874 -7.93431,-17.08052 -16.71053,-21.46018 -11.64934,-8.22488 -22.32682,-18.12157 -34.8777,-24.84569 4.92217,13.75169 19.92943,26.20214 29.1355,39.22481 18.00315,22.57181 40.98498,41.5929 52.44908,68.7499 5.25978,7.2566 10.92636,24.46796 -1.11505,9.97077 -7.87118,-6.23655 -27.41572,-36.31625 -20.16435,-10.14439 3.10109,21.14473 4.17906,42.53031 9.51497,63.28161 1.03212,21.53026 2.37838,49.70455 -19.20583,61.84755 -5.35615,7.15757 -33.65606,11.63453 -18.21477,-0.65003 10.85304,-11.31633 19.94903,-23.9902 21.40842,-40.12974 2.82011,-10.26251 5.87471,-20.50986 3.06073,-31.13671 -0.0157,-10.01357 -4.87235,-29.12275 -4.53862,-7.44205 0.56784,18.52493 -2.19335,37.39832 -10.65689,54.05955 1.46488,-8.3868 4.82909,-47.58302 -1.65297,-20.70753 -4.3305,19.35943 -5.75604,40.59953 -22.32699,54.04561 -16.19611,17.02459 -27.4971,41.4423 -50.27628,50.52919 -15.37979,3.25604 13.50563,-13.61025 15.42916,-21.44275 10.10524,-9.13349 3.11649,-21.65446 -6.87624,-9.11521 -13.8034,14.84852 -22.11403,35.30224 -37.83211,47.8167 4.63444,-9.44828 12.02023,-23.1166 -2.27852,-9.81179 -18.74614,15.22029 -44.10851,20.32423 -67.75219,18.55369 l -3.05413,-0.96094 -3.53267,-1.72993 0,0 z M 89.32867,106.24533 c 9.996077,-4.75059 12.44538,-25.463654 0.457109,-9.123362 -6.058672,7.650292 -23.178106,31.355282 -4.582174,12.800092 l 1.952774,-1.7384 2.172291,-1.93833 0,0 z m 243.17175,2.36592 c -6.51484,-11.644719 -34.97569,-12.693339 -36.31915,-3.38413 9.1976,-4.57719 17.62952,-1.49316 25.80139,3.18716 4.60963,1.94811 21.07647,10.89885 10.51776,0.19697 z M 132.29213,73.353204 c 8.92623,-2.505378 16.01885,-13.166936 1.91927,-8.117851 -9.64247,1.304279 -25.14372,22.785049 -6.60915,10.914282 l 2.28447,-1.349686 2.40541,-1.446745 0,0 z"
   style="fill:url(#radialGradient4543);fill-opacity:1;filter:url(#filter4910)" />
</svg>