<?xml version="1.0" encoding="utf-8"?>

<!DOCTYPE svg PUBLIC "-//W3C//DTD SVG 1.1//EN" "http://www.w3.org/Graphics/SVG/1.1/DTD/svg11.dtd">
<svg version="1.1" id="Layer_1" xmlns="http://www.w3.org/2000/svg" xmlns:xlink="http://www.w3.org/1999/xlink" x="0px" y="0px"
	 viewBox="0 0 727.9 1738.091" style="enable-background:new 0 0 727.9 1738.091;" xml:space="preserve">
<style type="text/css">
	.st0{fill:#E31E25;}
	.st1{fill:#FEED01;}
	.st2{fill:#2B2A28;}
</style>
<g>
	<path class="st0" d="M205.485,68.995c127.37,169.028,254.805,338.01,382.165,507.043c-57.408-29.64-55.068-28.665-56.705-29.178
		c45.311,50.796,90.864,101.377,136.185,152.168c-153.003-54.973-143.608-51.656-145.373-52.088
		c64.806,113.695,68.86,127.591,133.424,277.141c-28.562-21.398-56.98-42.984-85.519-64.41
		c19.84,57.67,17.477,52.243,52.246,190.255c1.203,4.953,2.551,9.874,3.68,14.846c-22.229-23.008-44.448-46.029-66.597-69.116
		c7.202,53.764,10.011,1.481,26.212,250.929c-2.998-4.685-44.961-75.713-46.897-78.999c-3.517,27.037-6.823,54.107-10.415,81.14
		c-6.544-7.192-12.77-14.668-19.384-21.786c-2.868,89.449-3.984,87.001-34.985,275.14c-1.764-4.871-31.911-114.132-33.898-119.749
		c-0.064,0.468-14.145,75.625-48.021,156.002c-58.489,137.952-54.861,129.63-55.646,130.662
		c-2.873-51.682-5.611-103.369-8.405-155.055c0.723,0.326,0.975,1.105,1.353,1.754c-2.178-15.738-2.958-33.233-5.322-74.951
		c0,0-65.41,68.808-131.577,102.641c-10.561,5.436-20.599,9.986-62.363,27.7c17.949-22.409,25.547-30.548,31.184-39.178
		c21.876-32.497,71.213-123.692,73.957-128.988c-0.116,0.062-173.906,135.563-174.01,135.644c0,0,115.003-178.774,159.966-250.672
		c-16.891,2.033-28.637-0.612-44.551-3.283c3.605-4.128,7.36-8.12,10.937-12.266c24.148-33.974,22.092-32.435,23.189-32.429
		c9.434-16.016,17.936-26.289,41.92-65.772c-12.98,5.653-25.979,11.273-39,16.833c20.932-42.839,42.191-85.524,62.89-128.475
		c0,0,1.937-0.523-51.612,20.401c31.618-63.044,20.385-38.606,31.338-63.235c0.606-1.25,0.858-2.752,1.964-3.68
		c3.395-9.687,7.91-18.936,11.469-28.553c-3.446,4.724-37.165,54.311-38.175,55.8c3.223-17.31,49.405-224.237,50.754-238.126
		c-17.832,22.84-30.18,34.599-51.122,55.819c15.772-100.141,29.744-175.529,41.118-295.367
		c-12.434,16.86-24.859,33.73-37.279,50.605C226.51,146.295,226.531,255.82,205.485,68.995 M219.612,103.62
		c0.076,2.958-0.158-0.599,11.604,93.667c8.793,64.791,12.108,379.826,12.663,390.075c13.353-18.325,26.953-36.473,40.283-54.812
		c0.257,61.205-38.608,294.167-38.982,300.101c19.939-20.666,37.671-43.38,53.916-67.031
		c-0.976,18.026-47.332,225.489-47.876,230.971c16.016-23.376,31.93-46.817,47.923-70.207c-0.46,4.079-11.151,39.981-21.963,67.47
		c-4.645,11.18-9.44,22.299-14.132,33.464c-4.19,10.413-15.506,30.642-18.418,37.499c13.543-5.133,39.205-15.652,52.265-23.395
		c-2.463,6.432-49.224,101.165-63.435,130.21c3.427-1.087,16.178-6.965,41.976-17.91c-21.208,37.72-53.914,86.886-78.887,121.978
		c-0.583,0.849-1.465,1.712-1.138,2.85c7.542,2.141,30.009,0.445,45.488-5.144c-39.653,64.854-141.397,222.746-141.399,222.75
		c169.761-131.927,121.579-94.125,169.476-139.016c-17.213,36.029-84.026,160.259-106.601,189.005
		c2.989-0.091,24.138-10.736,27.63-12.56c54.629-28.682,101.136-73.625,141.926-116.134c1.438,24.494,9.96,185.516,11.446,210.002
		c43.229-102.16,46.029-108.102,50.134-118.848c27.298-70.326,42.953-159.385,45.012-166.594
		c4.087,15.04,21.974,78.439,32.387,115.714c0.949-4.759-1.242,8.46,18.511-112.533c7.253-42.503,10.171-124.877,10.112-143.092
		c7.155,8.106,14.43,16.124,21.385,24.397c0.095-0.467,9.047-62.334,10.037-89.894c4.215,6.455,27.875,47.107,41.743,70.077
		c-1.026-14.741-8.162-117.884-10.405-134.813c-5.629-42.944-19.598-106.927-19.598-106.927c1.183,1.227,62.25,64.543,64.662,67.195
		c-0.473-2.723,0.135,0.058-15.513-62.223c-26.855-103.782-28.205-95.263-42.181-137.379c33.072,24.879,71.084,53.691,82.012,61.71
		c-58.27-148.583-125.788-253.25-131.082-265.005c2.971,0.458,47.473,17.029,134.044,47.834
		c-0.842-0.866-128.597-143.52-146.105-163.096c22.051,11.194,43.916,22.765,65.935,34.019
		C374.217,308.773,232.005,120.292,219.612,103.62z"/>
	<path class="st1" d="M219.612,103.62c12.571,16.913,152.311,202.11,334.853,444.373c-22.019-11.254-43.884-22.826-65.935-34.019
		c10.34,11.562,145.192,162.157,146.105,163.096c-87.208-31.032-131.051-47.373-134.044-47.834
		c4.235,9.402,73.905,119.209,131.082,265.005c-11.024-8.089-48.258-36.317-82.012-61.71c13.613,41.02,15.542,34.43,42.181,137.379
		c15.928,63.397,15.044,59.526,15.513,62.223c-2.412-2.652-62.835-65.299-64.662-67.195c0,0,13.969,63.983,19.598,106.927
		c2.238,16.895,9.506,121.889,10.405,134.813c-13.999-23.188-37.483-63.554-41.743-70.077c-0.933,25.996-9.88,89.123-10.037,89.894
		c-6.954-8.274-14.23-16.291-21.385-24.397c0.123,37.693-0.564,114.985-28.623,255.625c-10.69-38.266-28.227-100.406-32.387-115.714
		c-4.227,14.793-16.711,100.071-54.821,190.329c-13.423,31.711-26.907,63.403-40.325,95.113
		c-1.481-24.419-10.014-185.617-11.446-210.002c-49.354,51.433-98.472,98.109-164.924,127.118c-1.511,0.616-2.952,1.525-4.631,1.576
		c22.84-29.083,89.678-153.583,106.601-189.005c-46.43,43.515,0.834,6.662-169.476,139.016
		c0.003-0.005,101.753-157.908,141.399-222.749c-15.468,5.585-37.937,7.288-45.488,5.144c-0.326-1.138,0.555-2.001,1.138-2.85
		c25.194-35.402,57.782-84.441,78.887-121.978c-25.77,10.932-38.541,16.82-41.976,17.91c13.408-27.403,60.964-123.756,63.435-130.21
		c-13.104,7.769-38.97,18.356-52.265,23.395c2.816-6.63,14.316-27.303,18.418-37.499c4.692-11.166,9.487-22.285,14.132-33.464
		c10.676-27.144,21.496-63.325,21.963-67.47c-15.993,23.39-31.907,46.831-47.923,70.207c0.535-5.393,46.915-213.214,47.876-230.971
		c-16.245,23.651-33.977,46.365-53.916,67.031c0.355-5.635,39.245-237.538,38.982-300.101c-13.33,18.339-26.93,36.487-40.283,54.812
		c-0.7-12.919-0.238-25.876-0.793-38.8c-6.509-349.278-6.884-310.849-22.742-437.956
		C220.051,108.284,219.673,105.966,219.612,103.62 M262.134,530.117c14.147-19.568,21.428-26.535,44.719-71.751
		c-0.239,115.948-30.812,300.762-31.459,308.357c22.356-33.423,31.927-46.006,61.439-115.364
		c-9.668,88.68-45.449,249.396-46.034,253.214c20.618-30.885,26.842-36.646,50.777-83.407
		c-2.771,24.502-18.915,109.602-46.538,179.821c-3.68,8.829-7.448,17.621-11.166,26.436c25.661-18.362,26.853-18.025,72.185-66.089
		c-26.543,57.82-54.387,115.038-82.432,172.14c14.939-6.287,29.747-12.901,44.691-19.178
		c-28.757,59.852-74.582,126.46-84.582,141.702c34.569-19.999,30.431-17.229,63.239-39.831
		c-36.156,65.227-115.896,188.236-120.486,195.585c39.913-31.167,49.849-34.493,154.911-148.507
		c-41.726,109.816-105.82,214.477-117.846,235.216c41.043-32.149,85.583-67.199,134.907-130.695
		c3.401,58.832,8.686,162.648,9.682,175.754c13.296-32.513,45.663-92.684,75.753-288.903
		c10.718,38.175,21.366,76.373,32.172,114.525c4.516-29.866,14.687-67.105,14.687-217.534c8.829,10.121,17.747,20.158,26.599,30.26
		c4.243-30.294,6.581-55.056,2.85-118.326c12.444,21.105,25.008,42.144,37.424,63.267c-4.265-76.878-21.461-151.101-40.283-226.153
		c21.371,21.94,42.499,44.122,63.827,66.103c-7.831-31.446-15.834-70.604-64.2-190.464c26.179,19.654,52.279,39.411,78.425,59.107
		c-12.47-28.865-32.689-81.957-128.941-242.687c37.713,13.544,75.44,27.065,113.14,40.652
		C529.2,588.109,431.788,479.576,404.238,448.636c28.054,14.37,55.968,29.02,84.008,43.413
		c-80.23-106.447-160.489-212.875-240.691-319.345C250.967,204.939,256.678,204.109,262.134,530.117z"/>
	<path class="st2" d="M250.068,193.146c-0.807-6.819-1.791-13.614-2.514-20.442c80.202,106.47,160.461,212.898,240.691,319.345
		c-28.04-14.393-55.954-29.043-84.008-43.413c27.833,31.258,124.704,139.183,165.358,184.728
		c-37.699-13.586-75.426-27.107-113.14-40.652C551.585,751.567,572.083,804.58,585.397,835.4
		c-26.146-19.696-52.246-39.453-78.425-59.107c48.166,119.367,56.226,158.442,64.2,190.464
		c-21.329-21.982-42.457-44.164-63.827-66.103c21.327,85.042,36.225,153.014,40.283,226.153
		c-12.416-21.123-24.98-42.163-37.424-63.267c3.727,63.193,1.402,87.97-2.85,118.326c-8.852-10.102-17.77-20.139-26.599-30.26
		c0,149.145-9.709,184.607-14.687,217.534c-10.806-38.152-21.454-76.35-32.172-114.525
		c-29.788,194.249-61.488,254.022-75.753,288.903c-0.972-12.782-6.343-117.976-9.682-175.754
		c-44.201,56.902-83.478,90.411-134.907,130.695c7.647-13.188,74.973-122.382,117.846-235.216
		c-103.247,112.045-114.506,116.956-154.911,148.507c4.403-7.051,84.379-130.448,120.486-195.585
		c-32.692,22.522-28.61,19.797-63.239,39.831c7.347-11.198,55.263-80.682,84.582-141.702c-14.944,6.278-29.752,12.891-44.691,19.178
		c28.045-57.102,55.889-114.32,82.432-172.14c-45.46,48.199-46.66,47.824-72.185,66.089
		c34.719-82.331,53.153-166.026,57.703-206.257c-23.93,46.75-30.165,52.531-50.777,83.407c0.472-3.085,36.43-165.117,46.034-253.214
		c-29.69,69.778-39.681,82.836-61.439,115.364c0.471-5.525,31.222-193.895,31.459-308.357
		c-23.287,45.209-30.562,52.17-44.719,71.751C261.101,468.384,257.564,247.596,250.068,193.146 M267.773,224.059
		c4.497,69.668,6.952,188.978,8.311,260.014c19.615-33.514,33.676-65.886,42.862-85.902
		c8.692,113.069-10.377,228.538-18.241,297.574c24.102-50.505,41.76-96.758,58.37-139.771
		c-1.341,82.402-20.706,188.878-36.883,270.592c17.878-33.683,29.244-58.537,43.818-88.863c0.121,0,0.368,0.005,0.49,0.005
		c-1.053,1.276-1.737,16.317-6.105,54.774c-7.481,63.384-21.398,126.031-41.659,186.561c32.036-32.64,67.683-72.555,81.919-87.959
		c-18.509,47.9-16.16,48.005-96.284,213.159c14.141-6.077,28.241-12.262,42.419-18.26c-15.812,40.843-41.331,85.17-64.429,122.402
		c17.947-12.383,35.619-25.162,53.445-37.718c-28.083,60.604-35.067,69.493-93.178,164.626
		c46.523-46.697,94.455-100.168,126.544-135.704c-14.173,42.544-33.735,108.141-101.801,234.885
		c40.266-37.02,67.464-71.789,93.556-109.427c3.634,66.002,7.63,142.58,8.344,151.259c4.048-17.764,26.469-55.551,59.368-294.757
		c10.844,38.562,21.655,77.134,32.48,115.705c4.772-56.631,5.207-128.15,4.664-184.863c10.228,11.581,20.363,23.25,30.689,34.742
		c3.538-63.061-5.395-128.737-6.987-147.434c12.374,20.974,24.845,41.888,37.205,62.871
		c-9.111-63.029-32.055-152.808-47.844-212.726c21.137,21.898,42.251,43.814,63.37,65.73
		c-12.867-46.675-51.108-139.464-69.82-183.804c25.456,19.164,50.861,38.394,76.341,57.526
		c-31.609-65.807-87.858-161.821-126.521-224.432c7.239,2.493,92.203,33.043,97.632,34.994
		c-71.424-79.914-170.36-190.074-180.124-201.271c32.611,16.916,65.236,33.819,97.87,50.698
		C380.983,374.212,324.446,299.085,267.773,224.059z"/>
	<path class="st1" d="M267.773,224.059c56.672,75.025,113.21,150.153,169.822,225.225c-32.634-16.879-65.259-33.781-97.87-50.698
		c9.401,10.78,111.837,124.866,180.124,201.271c-3.6-1.294-90.359-32.49-97.632-34.994
		c39.493,63.957,95.263,159.356,126.521,224.432c-25.479-19.132-50.884-38.362-76.341-57.526
		c18.755,44.44,56.879,136.861,69.82,183.804c-21.119-21.916-42.233-43.832-63.37-65.73c15.051,57.12,38.613,148.872,47.844,212.726
		c-12.36-20.983-24.831-41.897-37.205-62.871c1.57,18.435,10.533,84.224,6.987,147.434c-10.326-11.492-20.461-23.161-30.689-34.742
		c0.543,56.691,0.109,128.214-4.664,184.863c-10.825-38.571-21.636-77.143-32.48-115.705
		c-1.473,10.707-18.424,168.304-56.822,286.734c-0.798,2.686-1.922,5.28-2.547,8.022c-0.714-8.678-4.661-84.372-8.344-151.259
		c-26.798,38.657-54.574,73.588-93.556,109.427c67.346-125.402,86.974-190.376,101.801-234.885
		c-15.296,16.94-74.362,83.327-126.544,135.704c53.446-87.496,63.956-101.565,93.178-164.626
		c-17.826,12.556-35.498,25.335-53.445,37.718c23.016-37.1,48.615-81.555,64.429-122.402c-14.179,5.998-28.278,12.182-42.419,18.26
		c80.038-164.976,77.726-165.133,96.284-213.159c-14.25,15.419-49.842,55.278-81.919,87.959
		c20.26-60.53,34.178-123.177,41.659-186.561c4.335-38.168,5.057-53.503,6.105-54.774c-0.121,0-0.368-0.005-0.49-0.005
		c-14.59,30.359-25.944,55.188-43.818,88.863c16.124-81.444,35.541-188.102,36.883-270.592
		c-16.368,42.387-34.082,88.878-58.37,139.771c7.14-62.683,27.013-183.47,18.241-297.574c-8.838,19.256-23.118,52.166-42.862,85.902
		C274.728,413.193,272.27,293.735,267.773,224.059 M328.876,401.105c1.262,27.56,7.744,68.582-8.922,216.984
		c-0.438,4.837-1.269,9.64-1.474,14.496c0,0,26.255-64.923,53.669-136.786c-6.034,128.69-8.973,157.159-27.564,264.496
		c21.47-45.073,35.573-74.261,36.463-76.676c0.053,3.515-10.199,102.279-11.777,115.556c-9.974,80.339-27.594,136.143-29.02,143.442
		c14.915-15.876,87.406-95.368,87.665-95.636c-37.596,97.384-31.17,88.175-103.485,237.958c3.656-1.295,23.63-10.093,40.432-17.252
		c-0.132,0.466-17.239,45.547-42.181,91.102c-2.784,5.196-5.905,10.214-8.526,15.494c1.922-1.391,42.841-30.807,45.162-32.051
		c-0.841,2.735-27.011,58.86-28.828,62.708c-9.958,19.999-21.473,39.154-32.587,58.51c8.123-7.902,94.299-103.7,95.02-104.451
		c-49.054,147.792-45.68,131.466-86.816,221.704c26.447-30.006,37.045-46.672,62.782-84.237
		c0.593,4.327,6.132,116.552,7.066,123.984c0,0,7.526-29.765,13.479-57.246c25.13-117.451,31.261-206.022,35.591-230.426
		c8.903,32.583,26.67,94.683,29.635,106.279c2.509-18.878,1.306-146.218,1.381-152.327c0.406,0.469,30.18,34.698,31.631,35.605
		c1.332-44.741-7.263-116.379-12.411-164.295c0.201,0.079,0.602,0.242,0.802,0.326c1.514,2.216,29.972,50.469,31.524,53.119
		c-4.751-36.082-47.226-193.909-47.442-194.835c19.971,20.498,39.695,41.235,59.643,61.756
		c-22.893-66.715-69.914-175.582-69.914-175.582c15.353,11.344,56.065,42.389,71.471,53.706
		c-30.414-62.334-121.201-209.274-121.484-209.741c3.071,0.554-2.901-1.094,87.278,31.076
		C482.488,572.309,335.89,408.834,328.876,401.105z"/>
	<path class="st0" d="M328.876,401.105c6.665,7.344,153.643,171.241,158.264,176.762c-90.006-32.109-84.205-30.522-87.278-31.076
		c0.287,0.474,91.581,148.453,121.484,209.741c-15.401-11.313-56.134-42.374-71.471-53.706c0,0,47.021,108.867,69.914,175.582
		c-19.948-20.522-39.672-41.258-59.643-61.756c0.116,0.498,42.841,159.888,47.442,194.835c-1.548-2.643-30.007-50.899-31.524-53.119
		c-0.201-0.084-0.602-0.247-0.802-0.326c4.846,45.111,13.749,119.342,12.411,164.295c-1.448-0.905-31.227-35.138-31.631-35.605
		c-0.006,0.467,1.048,134.053-1.381,152.327c-2.844-11.123-20.953-74.504-29.635-106.279
		c-4.18,23.555-14.183,150.724-46.528,277.215c-0.793,3.498-1.95,6.907-2.542,10.457c-0.885-7.042-6.513-119.952-7.066-123.984
		c-25.639,37.421-36.295,54.185-62.782,84.237c41.505-91.047,37.898-74.322,86.816-221.704
		c-0.682,0.711-86.934,96.584-95.02,104.451c11.114-19.356,22.63-38.511,32.587-58.51c1.65-3.494,27.996-60,28.828-62.708
		c-2.318,1.243-43.303,30.706-45.162,32.051c2.621-5.28,5.741-10.298,8.526-15.494c22.942-41.902,41.953-90.297,42.181-91.102
		c-17.141,7.304-36.718,15.937-40.432,17.252c72.314-149.78,65.889-140.574,103.485-237.958c-0.259,0.268-72.75,79.76-87.665,95.636
		c1.421-7.275,19.048-63.127,29.02-143.442c1.68-14.146,11.826-112.295,11.777-115.556c-0.888,2.411-14.961,31.535-36.463,76.676
		c18.046-104.19,21.409-133.211,27.564-264.496c-27.444,71.943-53.669,136.786-53.669,136.786c0.205-4.855,1.035-9.659,1.474-14.496
		C336.652,469.405,330.121,428.287,328.876,401.105z"/>
</g>
</svg>
